<?xml version="1.0" encoding="UTF-8"?>
<!DOCTYPE svg PUBLIC "-//W3C//DTD SVG 1.1//EN" "http://www.w3.org/Graphics/SVG/1.1/DTD/svg11.dtd">
<!-- Creator: CorelDRAW (Versão de avaliação) -->
<svg xmlns="http://www.w3.org/2000/svg" xml:space="preserve" width="226.222mm" height="59.9999mm" version="1.1" style="shape-rendering:geometricPrecision; text-rendering:geometricPrecision; image-rendering:optimizeQuality; fill-rule:evenodd; clip-rule:evenodd"
viewBox="0 0 21940.33 5819.14"
 xmlns:xlink="http://www.w3.org/1999/xlink"
 xmlns:xodm="http://www.corel.com/coreldraw/odm/2003">
 <defs>
  <style type="text/css">
   <![CDATA[
    .fil0 {fill:white}
    .fil1 {fill:white;fill-rule:nonzero}
   ]]>
  </style>
 </defs>
 <g id="Camada_x0020_1">
  <metadata id="CorelCorpID_0Corel-Layer"/>
  <g id="_105553284144384">
   <path class="fil0" d="M2938.11 12.64c-380.16,60.77 -651.18,332.91 -788.34,674.75 -111.07,276.81 -410,661.77 -624.25,831.32 -592.98,469.27 -867.44,373.39 -1180.89,633.11 -89.61,74.24 -205.7,222.49 -262.99,357.46 -366.41,863.31 575.56,1601.39 1334.28,1119.32 328.94,-208.99 459,-513.44 605.35,-861.97 80.1,-190.74 170.96,-462.03 363.96,-602.64 345.94,-252.04 296.96,-188.5 689.45,-289.22 392.21,-100.63 692.24,-260.79 848.75,-607.15 54.59,-120.82 84.46,-260.22 81.79,-404.63 -9.85,-530.91 -499.23,-941.13 -1067.12,-850.35z"/>
   <path class="fil0" d="M5238.16 2015.83c-381.9,27.63 -707.06,292.37 -874.26,587.35 -282.03,497.55 -309.48,1136.67 -1126.43,1320.19 -233.79,52.52 -495.96,133.83 -679.45,286.49 -29.99,24.94 -41.36,32.13 -66.62,53.02 -34.25,28.32 -28.35,35.07 -52.89,66.47 -41.01,52.49 -68.24,78.12 -109.76,141.01 -70.65,107 -114.87,203.4 -136.8,352.26 -84.27,572.25 386.88,1020.84 945.17,995.49 264.39,-12.01 415.25,-97.69 601.81,-236.4 233.66,-173.74 302.19,-565.83 620.7,-978.2 74.57,-96.54 85.73,-117.92 170.25,-187.67 42.39,-34.99 40.01,-59.02 189.95,-179.88 513.7,-414.07 833.43,-391.84 1101.48,-605.25 155.37,-123.71 313.72,-336.42 351.12,-623.99 74.08,-569.8 -388.25,-1030.41 -934.25,-990.89z"/>
   <path class="fil0" d="M991.54 3893.87l161.26 98.52c191.31,111.9 293.9,195.26 452.35,347.23 48.3,46.33 78.4,81.16 129.69,132.51l231.62 305.73c14.26,24.23 82.28,152.16 100.94,160.15 9.09,-435.95 272.81,-745.6 609.26,-943.28 47.91,-28.15 109.04,-43.91 150.15,-76.99 -87.08,-54.54 -308.71,-82.47 -524.03,-311.4 -128.65,-136.79 -233.23,-303.61 -270.86,-563.61 -2.28,2.63 -5.31,3.36 -6.29,8.33l-159.77 299.61c-43.49,66.98 -168.85,214.56 -222.23,255.17 -389.01,295.86 -447.66,212.58 -652.07,288.04z"/>
   <path class="fil0" d="M3385.68 1899.3c2.39,2 6.3,1.6 7.56,5.5l133.36 60.01c335.58,154.58 546.69,445.81 612.48,805.81 40.3,-29.79 57.98,-104.27 83.11,-153.95 25.28,-50.02 65.37,-115.75 94.93,-155.95 227.82,-309.92 482.01,-489.01 854.74,-552.63l56.57 -20.46c-194.87,-61.15 -540.79,-305.91 -635.15,-416.6 -47.46,-55.68 -73.67,-75.53 -133.25,-129.19 -32.49,-29.26 -86.63,-104.17 -118.44,-144.1 -64.47,-80.89 -195.84,-305.21 -217.29,-324.12 -24.18,271.66 -78.55,491.8 -224.96,656.36 -132.45,148.89 -296.28,312.5 -513.67,369.33z"/>
   <path class="fil1" d="M8446.44 4330.1l-743.04 0 0 -501.95 711.42 0c193.67,0 355.71,-35.56 482.18,-106.7 122.52,-71.15 217.38,-177.86 280.62,-320.14 59.29,-138.33 90.9,-308.29 90.9,-509.85 0,-201.57 -31.62,-371.51 -90.9,-513.8 -63.23,-138.33 -158.1,-241.09 -280.62,-316.18 -126.47,-71.14 -284.57,-106.71 -478.23,-106.71l-727.23 0 0 -501.95 766.75 0c288.52,0 537.51,59.29 746.99,177.86 213.42,114.62 375.47,280.61 490.09,497.99 114.61,213.42 169.95,466.37 169.95,762.79 0,292.47 -55.34,549.38 -169.95,762.8 -114.62,217.37 -276.67,383.38 -490.09,501.94 -209.48,114.62 -462.43,173.91 -758.86,173.91zm-422.9 -2877.3l0 2877.3 -592.85 0 0 -2877.3 592.85 0z"/>
   <path id="_1" class="fil1" d="M10897.54 4365.67c-138.33,0 -256.91,-23.71 -363.62,-67.19 -102.76,-47.43 -185.76,-114.62 -248.99,-205.52 -59.29,-90.9 -90.9,-201.57 -90.9,-335.95 0,-118.57 23.71,-213.43 63.23,-288.51 43.48,-79.05 102.77,-138.34 173.91,-185.77 75.1,-47.43 162.04,-83 256.9,-106.71 94.86,-23.71 197.62,-39.52 304.33,-51.37 122.52,-11.86 221.33,-23.71 296.43,-35.57 71.14,-11.86 126.47,-27.67 158.1,-51.38 31.62,-19.76 47.43,-55.33 47.43,-98.81l0 -11.85c0,-51.38 -15.81,-94.86 -39.52,-134.38 -27.67,-35.56 -67.19,-67.18 -114.62,-86.95 -51.38,-23.71 -110.67,-31.62 -177.86,-31.62 -71.14,0 -134.37,7.9 -185.76,31.62 -55.33,23.71 -94.85,51.38 -126.47,90.9 -31.62,43.47 -51.38,86.95 -55.34,142.28l-533.56 0c7.9,-142.28 51.37,-264.8 122.52,-367.57 75.1,-102.76 177.85,-181.8 312.24,-237.14 134.37,-55.33 296.42,-82.99 482.17,-82.99 138.34,0 260.86,15.81 371.52,47.43 110.66,31.62 201.57,75.1 276.66,138.33 75.1,59.29 130.43,134.37 169.95,217.37 39.52,86.96 59.29,185.76 59.29,292.47l0 1383.32 -557.28 0 0 -288.52 -7.9 0c-35.56,67.19 -79.04,126.48 -130.43,173.91 -55.33,47.43 -118.57,83 -193.66,110.66 -75.1,23.72 -166,39.53 -268.76,39.53zm154.14 -395.24c94.85,0 173.91,-15.81 237.14,-51.38 67.19,-31.62 118.57,-79.04 154.14,-138.33 35.57,-55.33 55.33,-122.52 55.33,-193.66l0 -205.52c-15.81,7.9 -39.52,15.81 -67.18,23.71 -27.67,7.9 -59.29,15.81 -94.86,23.71 -35.57,7.9 -75.1,15.81 -114.62,23.71 -43.48,7.9 -86.95,11.86 -134.37,19.77 -63.24,11.86 -122.52,27.67 -173.91,47.43 -55.33,19.77 -94.85,51.38 -126.48,86.96 -31.62,35.56 -47.43,79.04 -47.43,134.37 0,47.43 11.86,86.95 39.52,122.52 23.71,35.57 63.24,59.29 110.67,79.04 43.47,19.77 98.81,27.67 162.04,27.67z"/>
   <path id="_2" class="fil1" d="M12567.39 4330.1l0 -2039.4 549.38 0 0 347.8 3.96 0c39.52,-122.52 94.85,-213.43 173.9,-272.7 83,-59.29 189.71,-86.96 324.1,-86.96 31.62,0 63.23,0 90.9,0 27.67,3.96 55.34,3.96 75.1,3.96l0 486.13c-19.76,-3.95 -55.33,-3.95 -98.81,-7.9 -47.43,-3.95 -94.85,-3.95 -146.24,-3.95 -75.1,0 -146.24,15.81 -205.52,51.37 -63.23,35.57 -110.66,90.9 -146.24,158.1 -35.56,71.14 -51.37,158.1 -51.37,260.85l0 1102.7 -569.14 0z"/>
   <path id="_3" class="fil1" d="M15423.6 2290.7l0 446.61 -1335.88 0 0 -446.61 1335.88 0zm-984.12 -553.32l565.18 0 0 1964.3c0,67.19 15.81,114.62 43.48,142.29 27.67,27.66 79.04,39.52 158.1,39.52 31.62,0 71.14,0 114.62,0 43.47,0 79.04,0 102.76,0l0 446.61c-35.57,0 -83,0 -142.29,0 -63.23,0 -126.47,0 -189.7,0 -225.29,0 -387.33,-43.48 -494.05,-130.43 -106.71,-86.95 -158.09,-225.28 -158.09,-411.05l0 -2051.25z"/>
   <path id="_4" class="fil1" d="M16344.49 4365.67c-138.33,0 -256.91,-23.71 -363.62,-67.19 -102.76,-47.43 -185.76,-114.62 -248.99,-205.52 -59.29,-90.9 -90.9,-201.57 -90.9,-335.95 0,-118.57 23.71,-213.43 63.23,-288.51 43.48,-79.05 102.77,-138.34 173.91,-185.77 75.1,-47.43 162.04,-83 256.9,-106.71 94.86,-23.71 197.62,-39.52 304.33,-51.37 122.52,-11.86 221.33,-23.71 296.43,-35.57 71.14,-11.86 126.47,-27.67 158.1,-51.38 31.62,-19.76 47.43,-55.33 47.43,-98.81l0 -11.85c0,-51.38 -15.81,-94.86 -39.52,-134.38 -27.67,-35.56 -67.19,-67.18 -114.62,-86.95 -51.38,-23.71 -110.67,-31.62 -177.86,-31.62 -71.14,0 -134.37,7.9 -185.76,31.62 -55.33,23.71 -94.85,51.38 -126.47,90.9 -31.62,43.47 -51.38,86.95 -55.34,142.28l-533.56 0c7.9,-142.28 51.37,-264.8 122.52,-367.57 75.1,-102.76 177.85,-181.8 312.24,-237.14 134.37,-55.33 296.42,-82.99 482.17,-82.99 138.34,0 260.86,15.81 371.52,47.43 110.66,31.62 201.57,75.1 276.66,138.33 75.1,59.29 130.43,134.37 169.95,217.37 39.52,86.96 59.29,185.76 59.29,292.47l0 1383.32 -557.28 0 0 -288.52 -7.9 0c-35.56,67.19 -79.04,126.48 -130.43,173.91 -55.33,47.43 -118.57,83 -193.66,110.66 -75.1,23.72 -166,39.53 -268.76,39.53zm154.14 -395.24c94.85,0 173.91,-15.81 237.14,-51.38 67.19,-31.62 118.57,-79.04 154.14,-138.33 35.57,-55.33 55.33,-122.52 55.33,-193.66l0 -205.52c-15.81,7.9 -39.52,15.81 -67.18,23.71 -27.67,7.9 -59.29,15.81 -94.86,23.71 -35.57,7.9 -75.1,15.81 -114.62,23.71 -43.48,7.9 -86.95,11.86 -134.37,19.77 -63.24,11.86 -122.52,27.67 -173.91,47.43 -55.33,19.77 -94.85,51.38 -126.48,86.96 -31.62,35.56 -47.43,79.04 -47.43,134.37 0,47.43 11.86,86.95 39.52,122.52 23.71,35.57 63.24,59.29 110.67,79.04 43.47,19.77 98.81,27.67 162.04,27.67z"/>
   <polygon id="_5" class="fil1" points="18583.49,1452.8 18583.49,4330.1 18014.35,4330.1 18014.35,1452.8 "/>
   <polygon id="_6" class="fil1" points="19655.23,1452.8 19655.23,4330.1 19086.09,4330.1 19086.09,1452.8 "/>
   <path id="_7" class="fil1" d="M20782.3 4365.67c-138.33,0 -256.91,-23.71 -363.62,-67.19 -102.76,-47.43 -185.76,-114.62 -248.99,-205.52 -59.29,-90.9 -90.9,-201.57 -90.9,-335.95 0,-118.57 23.71,-213.43 63.23,-288.51 43.48,-79.05 102.77,-138.34 173.91,-185.77 75.1,-47.43 162.04,-83 256.9,-106.71 94.86,-23.71 197.62,-39.52 304.33,-51.37 122.52,-11.86 221.33,-23.71 296.43,-35.57 71.14,-11.86 126.47,-27.67 158.1,-51.38 31.62,-19.76 47.43,-55.33 47.43,-98.81l0 -11.85c0,-51.38 -15.81,-94.86 -39.52,-134.38 -27.67,-35.56 -67.19,-67.18 -114.62,-86.95 -51.38,-23.71 -110.67,-31.62 -177.86,-31.62 -71.14,0 -134.37,7.9 -185.76,31.62 -55.33,23.71 -94.85,51.38 -126.47,90.9 -31.62,43.47 -51.38,86.95 -55.34,142.28l-533.56 0c7.9,-142.28 51.37,-264.8 122.52,-367.57 75.1,-102.76 177.85,-181.8 312.24,-237.14 134.37,-55.33 296.42,-82.99 482.17,-82.99 138.34,0 260.86,15.81 371.52,47.43 110.66,31.62 201.57,75.1 276.66,138.33 75.1,59.29 130.43,134.37 169.95,217.37 39.52,86.96 59.29,185.76 59.29,292.47l0 1383.32 -557.28 0 0 -288.52 -7.9 0c-35.56,67.19 -79.04,126.48 -130.43,173.91 -55.33,47.43 -118.57,83 -193.66,110.66 -75.1,23.72 -166,39.53 -268.76,39.53zm154.14 -395.24c94.85,0 173.91,-15.81 237.14,-51.38 67.19,-31.62 118.57,-79.04 154.14,-138.33 35.57,-55.33 55.33,-122.52 55.33,-193.66l0 -205.52c-15.81,7.9 -39.52,15.81 -67.18,23.71 -27.67,7.9 -59.29,15.81 -94.86,23.71 -35.57,7.9 -75.1,15.81 -114.62,23.71 -43.48,7.9 -86.95,11.86 -134.37,19.77 -63.24,11.86 -122.52,27.67 -173.91,47.43 -55.33,19.77 -94.85,51.38 -126.48,86.96 -31.62,35.56 -47.43,79.04 -47.43,134.37 0,47.43 11.86,86.95 39.52,122.52 23.71,35.57 63.24,59.29 110.67,79.04 43.47,19.77 98.81,27.67 162.04,27.67z"/>
  </g>
 </g>
</svg>
