<?xml version="1.0" encoding="UTF-8"?>
<!DOCTYPE svg PUBLIC "-//W3C//DTD SVG 1.1//EN" "http://www.w3.org/Graphics/SVG/1.1/DTD/svg11.dtd">
<!-- Creator: CorelDRAW (Versão de avaliação) -->
<svg xmlns="http://www.w3.org/2000/svg" xml:space="preserve" width="226.222mm" height="59.9999mm" version="1.1" style="shape-rendering:geometricPrecision; text-rendering:geometricPrecision; image-rendering:optimizeQuality; fill-rule:evenodd; clip-rule:evenodd"
viewBox="0 0 22621.16 5999.71"
 xmlns:xlink="http://www.w3.org/1999/xlink"
 xmlns:xodm="http://www.corel.com/coreldraw/odm/2003">
 <defs>
  <style type="text/css">
   <![CDATA[
    .fil1 {fill:#4618A4}
    .fil0 {fill:#7B30E4}
    .fil2 {fill:#7B30E4;fill-rule:nonzero}
   ]]>
  </style>
 </defs>
 <g id="Camada_x0020_1">
  <metadata id="CorelCorpID_0Corel-Layer"/>
  <g id="_105553287898304">
   <path class="fil0" d="M3029.28 13.03c-391.95,62.66 -671.39,343.24 -812.8,695.69 -114.51,285.4 -422.72,682.31 -643.62,857.12 -611.38,483.83 -894.36,384.97 -1217.53,652.76 -92.4,76.55 -212.08,229.39 -271.15,368.55 -377.78,890.1 593.42,1651.08 1375.69,1154.06 339.14,-215.48 473.24,-529.38 624.13,-888.72 82.59,-196.66 176.26,-476.37 375.25,-621.34 356.67,-259.86 306.18,-194.35 710.85,-298.2 404.38,-103.76 713.72,-268.88 875.09,-625.99 56.29,-124.56 87.09,-268.3 84.33,-417.19 -10.16,-547.38 -514.73,-970.33 -1100.23,-876.74z"/>
   <path class="fil0" d="M5400.71 2078.38c-393.75,28.49 -729,301.45 -901.39,605.57 -290.78,512.99 -319.09,1171.95 -1161.39,1361.16 -241.05,54.15 -511.35,137.98 -700.54,295.38 -30.92,25.72 -42.65,33.13 -68.69,54.67 -35.31,29.2 -29.23,36.16 -54.53,68.54 -42.28,54.12 -70.36,80.55 -113.16,145.38 -72.85,110.32 -118.43,209.71 -141.04,363.19 -86.89,590 398.88,1052.52 974.49,1026.38 272.6,-12.38 428.14,-100.73 620.48,-243.74 240.91,-179.13 311.57,-583.39 639.96,-1008.55 76.89,-99.54 88.39,-121.57 175.53,-193.49 43.71,-36.08 41.25,-60.85 195.84,-185.46 529.64,-426.92 859.29,-404 1135.66,-624.03 160.19,-127.54 323.45,-346.86 362.01,-643.35 76.38,-587.48 -400.3,-1062.38 -963.25,-1021.64z"/>
   <path class="fil1" d="M1022.31 4014.7l166.26 101.58c197.25,115.37 303.02,201.32 466.39,358 49.8,47.77 80.84,83.68 133.71,136.62l238.81 315.22c14.7,24.98 84.84,156.88 104.08,165.12 9.37,-449.48 281.28,-768.73 628.16,-972.55 49.4,-29.03 112.42,-45.27 154.81,-79.38 -89.79,-56.23 -318.29,-85.03 -540.29,-321.07 -132.64,-141.03 -240.47,-313.04 -279.27,-581.1 -2.35,2.71 -5.47,3.46 -6.49,8.59l-164.73 308.91c-44.84,69.06 -174.09,221.22 -229.13,263.09 -401.08,305.05 -461.55,219.18 -672.31,296.98z"/>
   <path class="fil1" d="M3490.74 1958.24c2.46,2.06 6.5,1.65 7.8,5.67l137.49 61.88c345.99,159.37 563.65,459.65 631.49,830.81 41.55,-30.72 59.78,-107.51 85.69,-158.72 26.07,-51.57 67.4,-119.34 97.88,-160.79 234.89,-319.54 496.97,-504.19 881.26,-569.78l58.33 -21.1c-200.92,-63.05 -557.57,-315.41 -654.86,-429.53 -48.94,-57.41 -75.96,-77.88 -137.38,-133.2 -33.5,-30.17 -89.32,-107.41 -122.11,-148.57 -66.47,-83.4 -201.92,-314.69 -224.03,-334.17 -24.93,280.09 -80.99,507.06 -231.94,676.73 -136.56,153.51 -305.48,322.2 -529.61,380.79z"/>
   <path class="fil2" d="M8708.54 4464.46l-766.09 0 0 -517.53 733.5 0c199.68,0 366.75,-36.67 497.15,-110.01 126.32,-73.36 224.13,-183.38 289.33,-330.07 61.13,-142.62 93.73,-317.86 93.73,-525.68 0,-207.82 -32.6,-383.04 -93.73,-529.75 -65.2,-142.62 -163,-248.57 -289.33,-325.99 -130.39,-73.35 -293.4,-110.02 -493.07,-110.02l-749.8 0 0 -517.53 790.54 0c297.48,0 554.19,61.13 770.17,183.38 220.04,118.17 387.12,289.32 505.3,513.45 118.16,220.04 175.22,480.84 175.22,786.46 0,301.55 -57.06,566.42 -175.22,786.47 -118.17,224.12 -285.26,395.27 -505.3,517.52 -215.98,118.17 -476.78,179.3 -782.4,179.3zm-436.02 -2966.58l0 2966.58 -611.24 0 0 -2966.58 611.24 0z"/>
   <path id="_1" class="fil2" d="M11235.7 4501.14c-142.62,0 -264.88,-24.45 -374.9,-69.28 -105.95,-48.9 -191.52,-118.17 -256.72,-211.9 -61.13,-93.73 -93.73,-207.82 -93.73,-346.37 0,-122.24 24.45,-220.05 65.2,-297.47 44.83,-81.51 105.96,-142.63 179.3,-191.53 77.43,-48.9 167.07,-85.58 264.87,-110.02 97.81,-24.45 203.75,-40.75 313.78,-52.97 126.32,-12.23 228.2,-24.45 305.63,-36.68 73.35,-12.23 130.39,-28.53 163,-52.98 32.6,-20.37 48.9,-57.05 48.9,-101.88l0 -12.22c0,-52.98 -16.3,-97.81 -40.75,-138.55 -28.53,-36.67 -69.28,-69.27 -118.17,-89.65 -52.98,-24.45 -114.1,-32.6 -183.38,-32.6 -73.35,0 -138.54,8.15 -191.52,32.6 -57.05,24.45 -97.8,52.98 -130.39,93.73 -32.6,44.82 -52.98,89.65 -57.06,146.69l-550.11 0c8.15,-146.69 52.97,-273.02 126.32,-378.97 77.43,-105.95 183.37,-187.44 321.93,-244.5 138.54,-57.05 305.62,-85.57 497.14,-85.57 142.63,0 268.96,16.3 383.05,48.9 114.09,32.6 207.82,77.43 285.25,142.62 77.43,61.13 134.47,138.54 175.22,224.12 40.75,89.66 61.13,191.52 61.13,301.55l0 1426.24 -574.57 0 0 -297.48 -8.15 0c-36.67,69.28 -81.5,130.4 -134.47,179.3 -57.05,48.9 -122.24,85.58 -199.67,114.09 -77.43,24.46 -171.15,40.76 -277.1,40.76zm158.92 -407.5c97.8,0 179.3,-16.3 244.5,-52.98 69.28,-32.6 122.24,-81.5 158.92,-142.62 36.68,-57.05 57.05,-126.32 57.05,-199.67l0 -211.9c-16.3,8.15 -40.75,16.3 -69.27,24.45 -28.53,8.15 -61.13,16.3 -97.81,24.45 -36.68,8.15 -77.43,16.3 -118.17,24.45 -44.83,8.15 -89.65,12.23 -138.54,20.38 -65.21,12.23 -126.32,28.53 -179.3,48.9 -57.05,20.38 -97.8,52.98 -130.4,89.66 -32.6,36.67 -48.9,81.5 -48.9,138.54 0,48.9 12.23,89.65 40.75,126.32 24.45,36.68 65.21,61.13 114.1,81.5 44.82,20.38 101.88,28.53 167.07,28.53z"/>
   <path id="_2" class="fil2" d="M12957.37 4464.46l0 -2102.68 566.42 0 0 358.59 4.08 0c40.75,-126.32 97.8,-220.05 179.29,-281.17 85.58,-61.13 195.6,-89.66 334.15,-89.66 32.6,0 65.2,0 93.72,0 28.53,4.08 57.06,4.08 77.43,4.08l0 501.22c-20.37,-4.07 -57.05,-4.07 -101.88,-8.15 -48.9,-4.07 -97.8,-4.07 -150.77,-4.07 -77.43,0 -150.77,16.3 -211.9,52.97 -65.2,36.68 -114.09,93.73 -150.77,163 -36.67,73.35 -52.97,163 -52.97,268.95l0 1136.92 -586.8 0z"/>
   <path id="_3" class="fil2" d="M15902.21 2361.78l0 460.47 -1377.34 0 0 -460.47 1377.34 0zm-1014.66 -570.49l582.71 0 0 2025.26c0,69.28 16.3,118.17 44.83,146.7 28.53,28.52 81.5,40.75 163,40.75 32.6,0 73.35,0 118.17,0 44.82,0 81.5,0 105.95,0l0 460.47c-36.68,0 -85.58,0 -146.7,0 -65.2,0 -130.39,0 -195.59,0 -232.28,0 -399.35,-44.83 -509.38,-134.47 -110.02,-89.65 -162.99,-232.27 -162.99,-423.8l0 -2114.9z"/>
   <path id="_4" class="fil2" d="M16851.68 4501.14c-142.62,0 -264.88,-24.45 -374.9,-69.28 -105.95,-48.9 -191.52,-118.17 -256.72,-211.9 -61.13,-93.73 -93.73,-207.82 -93.73,-346.37 0,-122.24 24.45,-220.05 65.2,-297.47 44.83,-81.51 105.96,-142.63 179.3,-191.53 77.43,-48.9 167.07,-85.58 264.87,-110.02 97.81,-24.45 203.75,-40.75 313.78,-52.97 126.32,-12.23 228.2,-24.45 305.63,-36.68 73.35,-12.23 130.39,-28.53 163,-52.98 32.6,-20.37 48.9,-57.05 48.9,-101.88l0 -12.22c0,-52.98 -16.3,-97.81 -40.75,-138.55 -28.53,-36.67 -69.28,-69.27 -118.17,-89.65 -52.98,-24.45 -114.1,-32.6 -183.38,-32.6 -73.35,0 -138.54,8.15 -191.52,32.6 -57.05,24.45 -97.8,52.98 -130.39,93.73 -32.6,44.82 -52.98,89.65 -57.06,146.69l-550.11 0c8.15,-146.69 52.97,-273.02 126.32,-378.97 77.43,-105.95 183.37,-187.44 321.93,-244.5 138.54,-57.05 305.62,-85.57 497.14,-85.57 142.63,0 268.96,16.3 383.05,48.9 114.09,32.6 207.82,77.43 285.25,142.62 77.43,61.13 134.47,138.54 175.22,224.12 40.75,89.66 61.13,191.52 61.13,301.55l0 1426.24 -574.57 0 0 -297.48 -8.15 0c-36.67,69.28 -81.5,130.4 -134.47,179.3 -57.05,48.9 -122.24,85.58 -199.67,114.09 -77.43,24.46 -171.15,40.76 -277.1,40.76zm158.92 -407.5c97.8,0 179.3,-16.3 244.5,-52.98 69.28,-32.6 122.24,-81.5 158.92,-142.62 36.68,-57.05 57.05,-126.32 57.05,-199.67l0 -211.9c-16.3,8.15 -40.75,16.3 -69.27,24.45 -28.53,8.15 -61.13,16.3 -97.81,24.45 -36.68,8.15 -77.43,16.3 -118.17,24.45 -44.83,8.15 -89.65,12.23 -138.54,20.38 -65.21,12.23 -126.32,28.53 -179.3,48.9 -57.05,20.38 -97.8,52.98 -130.4,89.66 -32.6,36.67 -48.9,81.5 -48.9,138.54 0,48.9 12.23,89.65 40.75,126.32 24.45,36.68 65.21,61.13 114.1,81.5 44.82,20.38 101.88,28.53 167.07,28.53z"/>
   <polygon id="_5" class="fil2" points="19160.15,1497.88 19160.15,4464.46 18573.35,4464.46 18573.35,1497.88 "/>
   <polygon id="_6" class="fil2" points="20265.15,1497.88 20265.15,4464.46 19678.35,4464.46 19678.35,1497.88 "/>
   <path id="_7" class="fil2" d="M21427.2 4501.14c-142.62,0 -264.88,-24.45 -374.9,-69.28 -105.95,-48.9 -191.52,-118.17 -256.72,-211.9 -61.13,-93.73 -93.73,-207.82 -93.73,-346.37 0,-122.24 24.45,-220.05 65.2,-297.47 44.83,-81.51 105.96,-142.63 179.3,-191.53 77.43,-48.9 167.07,-85.58 264.87,-110.02 97.81,-24.45 203.75,-40.75 313.78,-52.97 126.32,-12.23 228.2,-24.45 305.63,-36.68 73.35,-12.23 130.39,-28.53 163,-52.98 32.6,-20.37 48.9,-57.05 48.9,-101.88l0 -12.22c0,-52.98 -16.3,-97.81 -40.75,-138.55 -28.53,-36.67 -69.28,-69.27 -118.17,-89.65 -52.98,-24.45 -114.1,-32.6 -183.38,-32.6 -73.35,0 -138.54,8.15 -191.52,32.6 -57.05,24.45 -97.8,52.98 -130.39,93.73 -32.6,44.82 -52.98,89.65 -57.06,146.69l-550.11 0c8.15,-146.69 52.97,-273.02 126.32,-378.97 77.43,-105.95 183.37,-187.44 321.93,-244.5 138.54,-57.05 305.62,-85.57 497.14,-85.57 142.63,0 268.96,16.3 383.05,48.9 114.09,32.6 207.82,77.43 285.25,142.62 77.43,61.13 134.47,138.54 175.22,224.12 40.75,89.66 61.13,191.52 61.13,301.55l0 1426.24 -574.57 0 0 -297.48 -8.15 0c-36.67,69.28 -81.5,130.4 -134.47,179.3 -57.05,48.9 -122.24,85.58 -199.67,114.09 -77.43,24.46 -171.15,40.76 -277.1,40.76zm158.92 -407.5c97.8,0 179.3,-16.3 244.5,-52.98 69.28,-32.6 122.24,-81.5 158.92,-142.62 36.68,-57.05 57.05,-126.32 57.05,-199.67l0 -211.9c-16.3,8.15 -40.75,16.3 -69.27,24.45 -28.53,8.15 -61.13,16.3 -97.81,24.45 -36.68,8.15 -77.43,16.3 -118.17,24.45 -44.83,8.15 -89.65,12.23 -138.54,20.38 -65.21,12.23 -126.32,28.53 -179.3,48.9 -57.05,20.38 -97.8,52.98 -130.4,89.66 -32.6,36.67 -48.9,81.5 -48.9,138.54 0,48.9 12.23,89.65 40.75,126.32 24.45,36.68 65.21,61.13 114.1,81.5 44.82,20.38 101.88,28.53 167.07,28.53z"/>
  </g>
 </g>
</svg>
