<?xml version="1.0" encoding="UTF-8"?>
<!DOCTYPE svg PUBLIC "-//W3C//DTD SVG 1.1//EN" "http://www.w3.org/Graphics/SVG/1.1/DTD/svg11.dtd">
<!-- Creator: CorelDRAW -->
<svg xmlns="http://www.w3.org/2000/svg" xml:space="preserve" width="192.278mm" height="42.786mm" version="1.1" style="shape-rendering:geometricPrecision; text-rendering:geometricPrecision; image-rendering:optimizeQuality; fill-rule:evenodd; clip-rule:evenodd"
viewBox="0 0 19201.38 4272.72"
 xmlns:xlink="http://www.w3.org/1999/xlink"
 xmlns:xodm="http://www.corel.com/coreldraw/odm/2003">
 <defs>
  <style type="text/css">
   <![CDATA[
    .fil0 {fill:#ffffff;fill-rule:nonzero}
   ]]>
  </style>
 </defs>
 <g id="Layer_x0020_1">
  <metadata id="CorelCorpID_0Corel-Layer"/>
  <path class="fil0" d="M6960.86 1055.57l888.57 0c230.75,0 434.47,46.24 611.14,138.72 176.68,92.47 313.9,221.33 411.65,386.55 97.59,165.4 146.38,354.05 146.38,565.96 0,212.08 -48.79,400.73 -146.38,565.96 -97.76,165.22 -234.98,294.08 -411.65,386.55 -176.68,92.48 -380.39,138.72 -611.14,138.72l-888.57 0 0 -2182.46zm876.15 1982.97c191.3,0 358.63,-37.96 502.02,-113.88 143.38,-75.75 254.53,-180.72 333.44,-314.95 79.09,-134.05 118.64,-288.35 118.64,-462.91 0,-174.56 -39.55,-328.87 -118.64,-462.91 -78.91,-134.05 -190.06,-239.03 -333.44,-314.95 -143.38,-75.93 -310.72,-113.88 -502.02,-113.88l-645.49 0 0 1783.49 645.49 0z"/>
  <path class="fil0" d="M10945.3 1598.01l0 1640.01 -211.91 0 0 -324.19c-66.59,110.09 -154.4,194.28 -263.43,252.59 -109.21,58.13 -232.34,87.19 -369.38,87.19 -153.78,0 -293.11,-35.32 -418,-105.95 -124.71,-70.63 -222.38,-169.37 -293.02,-296.19 -70.63,-126.83 -105.95,-271.27 -105.95,-433.31 0,-162.24 35.32,-306.68 105.95,-433.32 70.63,-126.83 168.31,-225.12 293.02,-294.87 124.89,-69.57 264.22,-104.37 418,-104.37 133,0 253.04,27.57 360.13,82.71 106.92,55.13 194.73,135.63 263.43,241.5l0 -311.78 221.16 0zm-825.95 1459.28c114.14,0 217.54,-26.5 310.19,-79.53 92.47,-53.02 165.22,-128.4 218.24,-226.17 52.85,-97.59 79.27,-208.73 79.27,-333.44 0,-124.72 -26.42,-235.96 -79.27,-333.71 -53.02,-97.59 -125.77,-172.89 -218.24,-225.91 -92.65,-53.02 -196.05,-79.53 -310.19,-79.53 -116.43,0 -220.89,26.51 -313.37,79.53 -92.65,53.02 -165.4,128.32 -218.24,225.91 -53.03,97.76 -79.53,208.99 -79.53,333.71 0,124.71 26.5,235.86 79.53,333.44 52.84,97.77 125.59,173.15 218.24,226.17 92.48,53.03 196.93,79.53 313.37,79.53z"/>
  <path class="fil0" d="M11734.26 1919.3c51.97,-110.27 129.38,-193.4 232.25,-249.42 102.87,-56.19 230.22,-84.29 382.06,-84.29l0 215.07 -53.11 -2.91c-172.62,0 -307.74,52.94 -405.31,158.8 -97.77,106.04 -146.65,254.71 -146.65,446.01l0 835.46 -221.15 0 0 -1640.01 211.9 0 0 321.29z"/>
  <path class="fil0" d="M13514.57 3138.41c-41.57,37.35 -92.47,65.88 -152.72,85.61 -60.42,19.72 -123.83,29.59 -190.24,29.59 -153.77,0 -272.23,-41.57 -355.37,-124.71 -83.15,-83.15 -124.71,-200.54 -124.71,-352.21l0 -1537.24 221.15 0 0 358.55 495.95 0 0 187.07 -495.95 -0.01 0 979.2c0,97.59 23.96,171.83 71.87,222.73 47.73,50.91 117.31,76.36 208.73,76.36 99.87,0 180.99,-28.01 243.35,-84.02l77.94 159.06z"/>
  <path class="fil0" d="M15313.38 1598.01l0 1640.01 -211.91 0 0 -324.19c-66.58,110.09 -154.39,194.28 -263.43,252.59 -109.21,58.13 -232.34,87.19 -369.38,87.19 -153.95,0 -293.28,-35.32 -418,-105.95 -124.71,-70.63 -222.38,-169.37 -293.02,-296.19 -70.63,-126.83 -105.95,-271.27 -105.95,-433.31 0,-162.24 35.32,-306.68 105.95,-433.32 70.63,-126.83 168.31,-225.12 293.02,-294.87 124.72,-69.57 264.05,-104.37 418,-104.37 133,0 252.95,27.57 359.87,82.71 107.09,55.13 194.9,135.63 263.43,241.5l0 -311.78 221.42 0zm-826.22 1459.28c114.32,0 217.72,-26.5 310.2,-79.53 92.47,-53.02 165.22,-128.4 218.24,-226.17 53.02,-97.59 79.53,-208.73 79.53,-333.44 0,-124.72 -26.51,-235.96 -79.53,-333.71 -53.02,-97.59 -125.77,-172.89 -218.24,-225.91 -92.48,-53.02 -195.88,-79.53 -310.2,-79.53 -116.43,0 -220.89,26.51 -313.36,79.53 -92.47,53.02 -165.22,128.32 -218.25,225.91 -53.02,97.76 -79.53,208.99 -79.53,333.71 0,124.71 26.51,235.86 79.53,333.44 53.03,97.77 125.77,173.15 218.25,226.17 92.47,53.03 196.93,79.53 313.36,79.53z"/>
  <path class="fil0" d="M16351.77 3253.61c-147.61,0 -261.4,-41.57 -341.37,-124.71 -80.15,-83.15 -120.22,-198.52 -120.22,-346.13l0 -1857.99 221.42 0 0 1839.5c0,97.59 22.9,171.83 68.71,222.73 45.62,50.91 114.14,76.36 205.56,76.36 58.31,0 108.24,-9.34 149.81,-28.01l15.59 183.9c-64.47,22.9 -130.97,34.35 -199.49,34.35z"/>
  <path class="fil0" d="M17274.42 3253.61c-147.43,0 -261.22,-41.57 -341.37,-124.71 -79.97,-83.15 -119.95,-198.52 -119.95,-346.13l0 -1857.99 221.42 0 0 1839.5c0,97.59 22.82,171.83 68.44,222.73 45.8,50.91 114.4,76.36 205.83,76.36 58.3,0 108.24,-9.34 149.81,-28.01l15.59 183.9c-64.47,22.9 -131.05,34.35 -199.76,34.35z"/>
  <path class="fil0" d="M19201.38 1598.01l0 1640.01 -212.17 0 0 -324.19c-66.41,110.09 -154.22,194.28 -263.43,252.59 -109.03,58.13 -232.16,87.19 -369.38,87.19 -153.78,0 -293.02,-35.32 -417.73,-105.95 -124.72,-70.63 -222.38,-169.37 -293.03,-296.19 -70.81,-126.83 -106.21,-271.27 -106.21,-433.31 0,-162.24 35.41,-306.68 106.21,-433.32 70.63,-126.83 168.31,-225.12 293.03,-294.87 124.71,-69.57 263.96,-104.37 417.73,-104.37 133,0 253.04,27.57 360.13,82.71 107.09,55.13 194.9,135.63 263.43,241.5l0 -311.78 221.42 0zm-826.21 1459.28c114.32,0 217.72,-26.5 310.19,-79.53 92.47,-53.02 165.22,-128.4 218.25,-226.17 53.02,-97.59 79.52,-208.73 79.52,-333.44 0,-124.72 -26.5,-235.96 -79.52,-333.71 -53.03,-97.59 -125.78,-172.89 -218.25,-225.91 -92.47,-53.02 -195.87,-79.53 -310.19,-79.53 -116.43,0 -220.89,26.51 -313.37,79.53 -92.47,53.02 -165.22,128.32 -218.24,225.91 -53.03,97.76 -79.53,208.99 -79.53,333.71 0,124.71 26.5,235.86 79.53,333.44 53.02,97.77 125.77,173.15 218.24,226.17 92.48,53.03 196.94,79.53 313.37,79.53z"/>
  <g>
   <path class="fil0" d="M2632.92 483.45c0,-131.58 -51.26,-254.97 -144.58,-348.29 -180.51,-179.77 -515.81,-180.01 -695.58,0.26l-1648.71 1648.91c-91.87,92.35 -143.74,217.49 -144.04,347.82 0,129.52 52.53,256.24 144.05,347.79l1649.23 1649.21c91.67,91.85 216.25,143.54 346.08,143.54 0.48,0 0.96,0 1.43,0 130.79,0 253.97,-50.99 347.53,-144.05 92.31,-91.62 144.34,-216.41 144.34,-346.51 0,-0.42 0,-0.9 0,-1.31 0,-131.32 -51.26,-254.97 -144.32,-347.79l-1300.66 -1300.88 1300.41 -1300.65c92.62,-91.46 144.83,-216.32 144.83,-346.53 0,-0.48 0,-1.07 0,-1.55l-0.01 0.03zm3573.8 1300.91l-1648.96 -1649.21c-180.28,-180.01 -514.54,-180.54 -695.85,0.5 -92,91.59 -143.77,216.25 -143.77,346.15 0,0.42 0,0.96 0,1.37 0,131.85 51.26,255.24 143.79,347.79l1301.18 1301.18 -1301.18 1301.15c-92.02,91.59 -143.79,216.25 -143.79,346.15 0,0.42 0,1.02 0,1.43 0,131.05 50.99,254.71 144.32,348.29 93.06,92.55 216.71,143.55 347.53,143.55 130.82,0 254.21,-50.99 347.53,-143.81l1648.97 -1648.94c91.85,-92.38 143.67,-217.45 144.03,-347.8 0,-129.55 -52.26,-256.27 -143.79,-347.79l-0.01 -0.01zm0 0l0 0 0 0z"/>
  </g>
 </g>
</svg>
